<svg version="1.1" id="Layer_1" xmlns="http://www.w3.org/2000/svg" xmlns:xlink="http://www.w3.org/1999/xlink" x="0px" y="0px" width="68.917" height="104.977" viewBox="0 0 68.917 104.977" enable-background="new 0 0 68.917 104.977" xml:space="preserve">
<path fill-rule="evenodd" clip-rule="evenodd" d="M57.353,77.768c0.116,1.762-0.733,3.021-2.056,4.068  c-1.24,0.982-2.419,2.043-3.672,3.01c-2.685,2.068-4.265,4.67-4.245,8.156c0.003,0.559-0.365,1.127-0.595,1.676  c-0.027,0.064-0.268,0.041-0.757,0.102c-0.176-0.467-0.502-0.998-0.565-1.559c-0.48-4.258-1.454-8.514,0.022-12.783  c0.632-1.828,0.934-3.736,0.44-5.658c-0.142-0.551-0.547-1.035-0.82-1.529c-0.515,0.225-0.986,0.297-1.024,0.467  c-1.018,4.533-3.887,7.998-6.73,11.418c-2.236,2.689-4.671,5.195-6.125,8.451c-0.237,0.531-0.867,0.879-1.286,1.34  c-1.705,1.879-3.162,3.918-4.052,6.322c-0.381,1.029-0.813,2.041-1.487,3.729c-0.499-1.203-1.046-1.859-0.947-2.395  c0.434-2.35,1.172-4.66,0.108-7.289c-0.52,0-1.275-0.236-1.655,0.041c-1.727,1.26-3.601,1.898-5.726,2.094  c-1.8,0.166-3.274,1.043-4.372,2.592c-0.899,1.27-2.006,2.393-3.279,3.883c-0.41-0.736-0.833-1.207-0.91-1.729  c-0.06-0.4,0.22-0.947,0.511-1.291c2.362-2.791,4.739-5.57,7.158-8.313c2.639-2.992,5.383-5.879,7.104-9.574  c1.468-3.148,2.094-6.359,1.375-9.781c-0.785-3.736-1.411-7.488-1-11.463c-0.678,0.035-1.4-0.102-1.517,0.105  c-1.097,1.936-2.243,3.867-3.08,5.922c-1.677,4.119-4.158,7.555-8.032,9.789c-3.313,1.912-6.384,4.094-8.787,6.953  c-1.155-0.35-1.71-0.93-1.108-1.795c0.72-1.035,1.694-1.891,2.499-2.873c0.904-1.1,1.923-2.158,2.58-3.4  c4.026-7.615,6.198-15.709,5.987-24.373c-0.007-0.299-0.182-0.594-0.277-0.888c-2.923-1.151-2.996,2.211-4.604,3.018  c-1.218-0.215-1.303-1.15-1.018-1.799c0.828-1.885,1.698-3.787,2.844-5.484c1.42-2.106,3.139-4.012,4.719-6.011  c0.594-0.752,1.219-1.488,1.731-2.294c1.889-2.974,2.667-6.075,1.188-9.514c-0.419-0.975-0.446-2.118-0.652-3.185l-0.124,0.095  c3.82,5.313,3.884,9.938,0.185,14.784c-0.381,0.499-0.861,0.922-1.278,1.396c-1.437,1.636-2.637,3.418-3.672,5.541  c1.268,0.596,2.085,0.031,2.968-0.217c0.346-0.098,0.969,0.125,1.186,0.413c0.225,0.299,0.317,1.02,0.114,1.271  c-1.844,2.272-2.013,5.032-2.096,7.709C12.38,61.6,11.58,66.07,9.718,70.398c-0.577,1.344-1.422,2.857-0.774,4.844  c0.826-0.273,1.756-0.295,2.151-0.766c1.531-1.816,3.292-3.6,4.235-5.723c2.167-4.877,4.917-9.121,8.922-12.791  c3.926-3.599,6.566-8.202,6.765-13.845c0.061-1.73,0.462-3.448,0.781-5.684c0.642,0.698,1.296,1.073,1.334,1.502  c0.506,5.706-1.228,10.903-3.78,15.894c-0.141,0.275-0.401,0.496-0.621,0.727c-4.065,4.281-5.208,9.332-3.981,15.018  c0.168,0.779,0.188,1.594,0.399,2.357c1.512,5.492-0.073,10.432-2.81,15.09c-1.122,1.91-2.625,3.6-3.997,5.354  c-0.563,0.721-1.24,1.35-2.254,2.438c4.034,0.578,6.75-1.146,9.294-2.918c1.399,1.529-0.396,3.275,0.936,4.732  c1.934-2.225,4.069-4.025,5.35-6.713c0.935-1.963,2.634-3.568,4.03-5.303c1.789-2.221,3.667-4.373,5.395-6.641  c0.557-0.73,0.908-1.701,1.097-2.613c0.483-2.342,0.797-4.652-0.159-7.047c-1.148-2.873-0.714-5.762,0.662-8.93  c0.478,0.701,0.913,1.047,0.916,1.396c0.008,1.434-0.006,2.885-0.219,4.297c-0.287,1.9,0.394,3.439,1.451,4.893  c0.371,0.51,0.832,0.955,1.23,1.445c1.867,2.297,2.227,4.875,1.413,7.668c-0.491,1.684-1.059,3.352-1.448,5.059  c-0.167,0.729-0.133,1.609,1.341,2.262c2.355-2.588,5.931-4.02,8.308-7.039c0.47-0.596,1.18-1.004,1.779-1.5L57.353,77.768z"/>
<path fill-rule="evenodd" clip-rule="evenodd" d="M53.514,28.814c-0.018,2.738-1.831,4.692-3.021,6.918  c-0.825,1.543-1.81,3.022-2.439,4.641c-0.505,1.297-0.87,2.77,0.052,4.125c1.109-0.271,0.801-1.207,1.029-1.904  c1.46-4.443,3.777-8.551,6.821-11.947c5.288-5.901,5.396-12.223,2.949-19.121c-0.053-0.148-0.172-0.271-0.236-0.417  c-1.401-3.172-1.69-6.178,1.633-8.841c1.612-0.726,3.328-0.226,5.087,0.79c1.868,1.079,2.557,2.775,2.899,4.705  c0.277,1.568,0.595,3.155,0.618,4.738c0.056,3.835-0.104,7.674-0.078,11.51c0.031,4.521-1.623,8.412-4.252,11.966  c-0.664,0.897-1.306,1.843-2.116,2.596c-3.775,3.507-3.73,7.934-2.966,12.459c0.199,1.178,1.038,2.282,1.711,3.338  c0.857,1.346,1.858,2.6,2.771,3.912c1.788,2.568,1.774,5.365,0.785,8.164c-0.631,1.781-1.56,3.459-2.434,5.355  c-0.847-0.143-1.735-0.293-2.861-0.482c-0.097,1.609-0.151,3.16-0.297,4.703c-0.099,1.051-0.582,1.82-1.816,1.746l0.11,0.094  c0.107-1.426,0.295-2.854,0.3-4.281c0.006-1.592-0.19-3.186-0.229-4.779c-0.033-1.34-0.51-2.723,0.106-4.605  c1.466,1.828,2.585,3.225,3.748,4.676c3.597-4.549,3.684-6.701,0.61-10.748c-0.29-0.381-0.582-0.766-0.91-1.113  c-3.06-3.242-3.896-7.099-3.638-11.47c0.191-3.23,1.115-5.787,3.677-7.901c2.48-2.046,4.21-4.771,4.954-7.936  c1.629-6.926,1.209-13.96,0.79-20.972c-0.108-1.812-1.152-3.294-2.509-4.492c-1.014-0.896-2.467-0.789-3.448,0.194  c-1.622,1.625-1.688,3.375-0.552,6.135c3.064,7.447,2.946,14.57-2.255,21.187c-1.969,2.505-3.837,5.104-5.563,7.78  c-2.029,3.146-3.249,6.566-2.616,10.43c0.052,0.32-0.314,0.708-0.683,1.469c-2.167-3.595-2.773-7.182-2.661-10.788  c0.055-1.776,0.81-3.821,1.928-5.188c1.023-1.25,1.839-2.539,2.463-3.953c0.563-1.273,1.558-1.955,2.652-2.608L53.514,28.814z"/>
<path fill-rule="evenodd" clip-rule="evenodd" d="M15.243,25.924c-3.512-3.358-6.043-9.245-6.003-13.961  c0.001-0.159,0.02-0.319,0.012-0.479c-0.143-2.654,1.055-4.661,3.214-6.017c1.473-0.924,3.099-1.637,4.724-2.271  c0.679-0.265,1.842-0.416,2.25-0.039c1.344,1.239,2.441,0.852,3.881,0.199c2.185-0.989,4.496-1.583,6.884-0.365  c2.641,1.346,3.838,4.02,2.749,6.768c-0.76,1.918-1.762,3.739-2.659,5.603c-0.414,0.859-0.888,1.694-1.238,2.579  c-0.397,1.003-0.685,2.05-1.257,3.802c1.125-0.554,1.687-0.694,2.058-1.039c1.167-1.086,2.231-2.281,3.392-3.374  c2.497-2.348,3.729-5.138,3.118-8.593c-0.476-2.692,0.075-5.075,2.032-7.054c0.336-0.34,0.674-0.825,1.085-0.918  c2.942-0.664,5.922-1.202,8.892-0.251c0.515,0.165,0.972,0.848,1.237,1.396c2.01,4.142,3.987,8.298,5.912,12.479  c0.32,0.696,0.528,1.547,0.465,2.299c-0.293,3.49-0.667,6.975-1.094,10.451c-0.091,0.743-0.365,1.579-1.382,1.675l0.113,0.081  c-0.455-1.765-0.069-3.438,0.338-5.176c0.889-3.798,0.985-7.538-1.098-11.127c-1.031-1.776-1.601-3.817-2.453-5.704  c-0.713-1.577-1.535-3.105-2.326-4.689c-2.465,0-4.671,0-6.886,0C38.9,3.56,37.989,5.61,38.257,8.242  c0.064,0.635,0.115,1.273,0.121,1.91c0.033,3.188-0.969,5.944-3.384,8.12c-1.305,1.176-2.609,2.354-3.857,3.588  c-3.84,3.797-6.714,8.064-6.728,13.76c-0.002,0.725-0.502,1.446-0.807,2.268c-0.571-0.309-0.964-0.52-1.261-0.681  c0.199-2.009,0.148-3.966,0.617-5.789c1.578-6.135,4.099-11.948,6.416-17.828c0.056-0.144,0.223-0.244,0.276-0.389  c0.604-1.638,1.278-3.256,1.765-4.929c0.373-1.282-0.266-2.592-1.446-3.265c-1.124-0.641-2.316-1.086-3.657-0.692  c-2.289,0.672-4.614,1.237-6.859,2.03c-1.326,0.469-2.421,1.239-3.979,0.388c-0.541-0.296-1.833,0.35-2.544,0.882  c-1.947,1.458-2.66,3.542-2.335,5.925c0.39,2.866,1.29,5.577,2.614,8.161c0.717,1.397,1.279,2.876,1.912,4.318L15.243,25.924z"/>
<g>
</g>
<g>
</g>
<g>
</g>
<g>
</g>
<g>
</g>
<g>
</g>
</svg>