<svg version="1.1" id="Layer_1" xmlns="http://www.w3.org/2000/svg" xmlns:xlink="http://www.w3.org/1999/xlink" x="0px" y="0px" width="70.616" height="114.25" viewBox="0 0 70.616 114.25" enable-background="new 0 0 70.616 114.25" xml:space="preserve">
<path fill-rule="evenodd" clip-rule="evenodd" d="M28.19,58.573c2.292-5.342,1.468-9.475-0.862-13.593  c-1.721-3.042-3.318-6.194-4.576-9.449c-1.855-4.798-1.147-9.421,1.869-13.639c0.372-0.52,0.758-1.029,1.136-1.545  c1.35-1.845,2.076-3.857,2.239-6.189c0.155-2.214,0.554-4.46,1.211-6.579c1.27-4.091,5.183-6.275,9.411-5.579  c2.384,0.392,4.165,1.551,5.156,3.792c0.448,1.015,0.835,2.058,1.213,3c2.14,1.244,4.174,2.427,6.204,3.607  c1.103-0.469,0.691-1.328,0.49-1.999c-0.365-1.221-0.94-2.38-1.313-3.601c-0.322-1.06-0.596-2.16-0.688-3.259  c-0.114-1.369,0.448-2.566,1.726-3.165c1.228-0.575,2.578-0.542,3.561,0.489c1.311,1.376,2.709,2.761,3.637,4.389  c1.97,3.454,3.861,6.98,5.416,10.635c2.389,5.62,2.455,11.073-1.736,16.149c-2.016,2.443-3.555,5.279-5.325,7.927  c-2.771,4.142-3.358,8.573-1.492,13.188c1.072,2.652,2.28,5.286,3.753,7.731c2.643,4.383,5.754,8.443,9.295,12.162  c0.638,0.669,1.133,1.474,2.102,2.754c-1.314-0.1-2.209,0.111-2.653-0.242c-4.356-3.469-9.521-5.871-13.323-10.072  c-0.175-0.193-0.586-0.172-1.219-0.336c0.037,0.637-0.01,1.186,0.109,1.697c0.977,4.234,0.425,8.225-1.738,12.012  c-0.869,1.521-1.521,3.168-2.41,4.676c-1.973,3.346-2.388,6.967-1.641,10.645c1.17,5.751,2.489,11.48,4.875,16.895  c0.076,0.17-0.25,0.516-0.395,0.793c-6.967-2.434-8.521-9.297-11.59-14.657c-2.165,0.087-3.135,1.415-4.251,2.496  c0.145,4.108-1.098,7.811-3.791,10.804c-1.716,1.908-3.813,3.67-6.572,3.744c-0.271-0.414-0.452-0.562-0.434-0.679  c0.414-2.668,0.808-5.341,1.304-7.993c0.172-0.92,0.619-1.787,0.917-2.686c0.199-0.6,0.163-1.508,0.565-1.773  c2.371-1.57,1.907-4.003,1.667-6.084c-0.495-4.303,0.361-8.166,2.303-11.998c0.986-1.947,1.32-4.244,1.808-6.414  c0.15-0.666-0.168-1.438-0.277-2.197c-1.407,0.311-1.575,1.371-1.877,2.18c-1,2.672-2.714,4.652-5.203,6.029  c-0.833,0.461-1.565,1.105-2.343,1.667c-2.151,1.558-3.563,3.616-4.256,6.186c-0.575,2.129-1.203,4.243-1.926,6.782  c-0.808-0.658-1.488-0.93-1.646-1.385c-1.585-4.545-2.182-9.305-2.582-14.057c-0.141-1.674,0.479-3.488,1.057-5.131  c1.383-3.936,0.855-7.536-1.465-10.93c-1.261-1.844-2.447-3.753-3.849-5.486c-2.667-3.297-3.672-7.019-3.316-11.187  c0.117-1.366,0.752-2.81-0.533-4.167c-2.911,0.158-3.458,2.864-4.839,4.84c-0.478-0.348-1.126-0.66-1.09-0.818  c1.331-5.883,1.884-12.01,4.314-17.552c1.48-3.374,1.808-6.74,1.799-10.225c-0.005-2.198-0.473-4.395-0.747-6.707  c0.714,0.187,1.388,0.362,2.309,0.603c0.451-1.153,0.902-2.305,1.353-3.456c1.262-3.22,3.391-5.746,6.14-7.81  c1.325-0.995,2.63-0.979,4.034-0.281c2.342,1.165,4.063,4.036,3.683,6.729c-0.285,2.022-0.596,4.091-1.971,5.818  c-3.024,3.8-3.724,8.422-4.173,13.032c-0.289,2.961,0.652,5.907,2.793,7.915c3.799,3.563,4.7,8.194,5.694,12.894  c0.461,2.181,1.046,4.339,1.648,6.486C27.031,56.935,27.466,57.395,28.19,58.573z M40.674,35.598c0-2.028,0.096-3.134-0.016-4.22  c-0.498-4.864,1.66-8.272,5.671-10.763c0.935-0.581,1.861-1.283,2.554-2.125c2.157-2.624,1.645-5.163-1.322-6.723  c-1.246-0.654-2.596-1.108-3.682-1.563c-0.555-1.522-0.899-2.763-1.449-3.905c-0.652-1.353-1.74-2.201-3.302-2.492  c-3.407-0.635-5.47,0.157-7.412,3.025c-1.007,1.488-1.578,3.126-1.663,4.931c-0.2,4.257-1.326,8.183-4.151,11.497  c-0.206,0.242-0.373,0.52-0.545,0.788c-2.324,3.629-2.838,7.426-0.945,11.39c1.374,2.876,2.725,5.772,4.271,8.557  c1.936,3.487,2.789,7.104,2.022,11.054c-0.274,1.411-0.474,2.84-0.833,4.229c-0.175,0.676-0.639,1.274-1.026,2.01  c-2.226-1.322-3.035-3.222-3.551-5.249c-0.708-2.779-1.301-5.587-1.929-8.387c-0.703-3.133-1.612-6.107-3.969-8.538  c-1.184-1.221-2.059-2.853-2.722-4.445c-1.865-4.476-1.532-9.095-0.162-13.598c0.689-2.266,1.893-4.387,2.981-6.514  c1.03-2.013,1.994-4.011,1.879-6.349c-0.072-1.456-0.927-2.307-2.17-2.891c-1.099-0.516-2.164-0.578-3.153,0.202  c-2.68,2.111-4.986,4.484-5.748,7.997c-0.607,2.8-1.577,5.549-1.903,8.377c-0.534,4.63-1.751,9.013-3.334,13.38  c-0.894,2.464-1.939,5.04-1.741,8.198c1.741-0.432,3.187-0.79,4.854-1.203c0.695,3.242,0.365,6.258,0.223,9.224  c-0.073,1.526,0.164,2.879,0.81,4.148c0.793,1.559,1.794,3.011,2.715,4.505c1.589,2.578,3.138,5.184,4.796,7.717  c0.938,1.432,1.247,2.959,0.973,4.572c-0.399,2.35-0.866,4.693-1.441,7.006c-0.905,3.635-0.407,7.543,1.521,10.409  c0.719-1.089,1.326-2.21,2.126-3.169c1.115-1.336,2.146-3.039,3.615-3.729c4.683-2.199,6.824-6.02,7.876-10.76  c0.063-0.282,0.354-0.514,0.539-0.77c2.84-0.026,3.288,0.279,3.764,2.371c0.828,3.637,0.021,7.037-1.758,10.16  c-1.727,3.033-2.532,6.218-2.217,9.636c0.314,3.424-0.243,6.681-1.276,9.912c-0.337,1.056-0.611,2.161-0.681,3.259  c-0.032,0.49,0.406,1.285,0.824,1.449c0.351,0.137,1.242-0.314,1.444-0.728c0.98-1.993,1.675-4.081,2.227-6.265  c0.82-3.242,2.795-5.654,6.257-6.23c1.808,1.043,2.58,2.507,3.173,4.246c0.662,1.946,1.6,3.817,2.594,5.623  c0.422,0.766,1.121,1.621,2.582,1.148c0.035-0.648,0.244-1.426,0.086-2.121c-0.637-2.795-1.512-5.538-2.068-8.346  c-1.059-5.33-0.721-10.5,2.277-15.252c0.511-0.811,0.943-1.672,1.452-2.482c2.8-4.469,3.04-8.982,0.239-13.54  c-1.404-2.284-1.668-4.785-1.412-7.366c0.07-0.712,0.22-1.597,1.314-1.47c0.223,0.288,0.519,0.507,0.586,0.782  c1.039,4.27,4.117,7.135,7,10.115c0.589,0.608,1.388,1.431,2.609,0.29c-0.979-1.57-1.938-3.199-2.986-4.771  c-2.148-3.225-3.725-6.705-4.576-10.477c-0.794-3.518-0.742-7.037,1.123-10.24c1.521-2.613,3.276-5.091,4.941-7.619  c1.052-1.597,2.338-3.076,3.155-4.782c2.418-5.053,1.396-9.994-0.974-14.756c-1.421-2.856-2.969-5.654-4.564-8.417  c-0.625-1.08-1.477-2.052-2.343-2.96c-0.569-0.598-1.386-0.771-2.198-0.336c-0.936,0.502-1.513,1.266-1.213,2.337  c0.387,1.38,0.83,2.758,1.408,4.066c1.705,3.845,1.412,7.793,0.684,11.754c-0.137,0.74-0.541,1.594-1.1,2.063  c-1.943,1.632-3.961,3.187-6.047,4.629c-1.021,0.707-2.256,1.104-3.112,1.508C41.894,30.705,43.034,33.056,40.674,35.598z   M45.266,24.738c3.715-0.768,4.044-1.023,5.169-3.727C48.043,21.54,46.383,22.73,45.266,24.738z"/>
<g>
</g>
<g>
</g>
<g>
</g>
<g>
</g>
<g>
</g>
<g>
</g>
</svg>